IKResults
version=1
nRows=16
nColumns=40
inDegrees=yes

Units are S.I. units (second, meters, Newtons, ...)
Angles are in degrees.

endheader
time	pelvis_tilt	pelvis_list	pelvis_rotation	pelvis_tx	pelvis_ty	pelvis_tz	hip_flexion_r	hip_adduction_r	hip_rotation_r	knee_angle_r	knee_angle_r_beta	ankle_angle_r	subtalar_angle_r	mtp_angle_r	hip_flexion_l	hip_adduction_l	hip_rotation_l	knee_angle_l	knee_angle_l_beta	ankle_angle_l	subtalar_angle_l	mtp_angle_l	lumbar_extension	lumbar_bending	lumbar_rotation	arm_flex_r	arm_add_r	arm_rot_r	elbow_flex_r	pro_sup_r	wrist_flex_r	wrist_dev_r	arm_flex_l	arm_add_l	arm_rot_l	elbow_flex_l	pro_sup_l	wrist_flex_l	wrist_dev_l
      0.33000000	     11.25976967	     -6.31487682	      5.83414081	     -0.55977382	      0.92555254	     -1.00801237	      8.17921955	      8.95986620	    -11.83224650	    -26.99471183	     -0.47114660	      4.08094640	    -11.45685538	      2.69911263	    -17.09616494	      9.70083053	     -1.69026463	    -51.14694882	     -0.89268266	     -9.79689749	     17.17458513	      6.80409244	    -20.91815119	      8.61633695	     -7.09847331	    -14.10694815	    -10.44465401	     -5.86355992	     16.41080954	     89.95437384	      0.00000000	      0.00000000	     11.59494563	      9.05679458	     14.56114507	     55.59153873	     89.95437384	      0.00000000	      0.00000000
      0.34000000	     11.47201081	     -6.30976200	      6.25711875	     -0.54582356	      0.92807779	     -1.00761916	      6.44497826	      9.20575003	    -11.89517784	    -26.02806384	     -0.45427541	      5.15454089	    -10.70080038	      2.48745322	    -15.50646790	      9.79620254	     -1.90202161	    -53.23461962	     -0.92911939	     -6.48948366	     17.68632234	      6.56163146	    -21.00520376	      8.66742665	     -6.97485300	    -14.21657444	    -10.42805323	     -5.37379537	     17.71938368	     89.95437384	      0.00000000	      0.00000000	     11.28155685	      8.62821867	     14.40555848	     53.94724916	     89.95437384	      0.00000000	      0.00000000
      0.35000000	     11.87032237	     -6.26975639	      6.43570238	     -0.53206952	      0.93080248	     -1.00706947	      4.56940935	      9.36096495	    -12.15773627	    -25.16200335	     -0.43915980	      5.67746385	     -9.99303685	      2.32857004	    -14.15053293	      9.94888062	     -1.45717197	    -54.84376395	     -0.95720426	     -4.22205895	     17.74932142	      6.51897242	    -21.41242016	      8.61057639	     -6.73206962	    -14.06050903	    -10.53539086	     -4.53667229	     18.98911451	     89.95437384	      0.00000000	      0.00000000	     10.79266506	      8.22917297	     14.39102394	     52.56404264	     89.95437384	      0.00000000	      0.00000000
      0.36000000	     12.13521789	     -5.97936877	      6.40889437	     -0.51839976	      0.93335238	     -1.00637025	      2.83240806	      9.31214931	    -11.82040995	    -24.36069709	     -0.42517437	      6.24015082	     -9.48217708	      2.18404282	    -12.77628213	      9.65466435	     -1.13119919	    -55.98481305	     -0.97711932	     -2.51080179	     18.04464459	      6.55248238	    -21.71134264	      8.23345348	     -6.42068403	    -13.70501348	    -10.55574725	     -4.09747670	     19.87465543	     89.95437384	      0.00000000	      0.00000000	     10.29976734	      7.85621590	     14.45517883	     50.99237050	     89.95437384	      0.00000000	      0.00000000
      0.37000000	     12.32824438	     -5.62657773	      6.29701638	     -0.50492633	      0.93569555	     -1.00574801	      1.20818923	      9.16029747	    -11.43903053	    -23.60375553	     -0.41196325	      6.75971088	     -9.01128685	      2.04829736	    -11.33618898	      9.18056862	     -0.84561081	    -56.85768893	     -0.99235388	     -0.77152962	     18.12118060	      6.49821873	    -21.97135698	      7.78646257	     -6.08457184	    -13.27517107	    -10.62763912	     -3.66864730	     20.89192838	     89.95437384	      0.00000000	      0.00000000	      9.78595435	      7.53447036	     14.47072619	     49.30800961	     89.95437384	      0.00000000	      0.00000000
      0.38000000	     12.52081801	     -5.27924321	      6.14572067	     -0.49160450	      0.93782471	     -1.00497370	     -0.41341516	      9.00791720	    -11.04149955	    -22.78489351	     -0.39767141	      7.13035930	     -8.60802466	      1.94845340	     -9.92015693	      8.77116470	     -0.43787500	    -57.42142703	     -1.00219296	      1.03557957	     18.22184922	      6.53323416	    -22.26341441	      7.32019130	     -5.72854216	    -12.85384513	    -10.75815836	     -3.08602622	     22.03886489	     89.95437384	      0.00000000	      0.00000000	      9.23979109	      7.30496624	     14.41961219	     47.56387356	     89.95437384	      0.00000000	      0.00000000
      0.39000000	     12.93637034	     -4.99497645	      5.88813172	     -0.47800626	      0.94013549	     -1.00400813	     -2.42504165	      8.91467982	    -10.79812033	    -21.71516476	     -0.37900112	      7.28206652	     -8.25631818	      1.83366923	     -8.88467635	      8.45980122	      0.19923124	    -57.55218910	     -1.00447519	      2.55240616	     18.08042818	      7.04117437	    -22.78703295	      6.89417740	     -5.29283573	    -12.46856826	    -11.06841927	     -1.93585791	     23.40822094	     89.95437384	      0.00000000	      0.00000000	      8.58275012	      7.14762494	     14.33514754	     45.87470027	     89.95437384	      0.00000000	      0.00000000
      0.40000000	     12.83188051	     -4.57728464	      5.66708760	     -0.46489004	      0.94147904	     -1.00325142	     -3.67526541	      8.55134931	    -10.80963480	    -21.01497570	     -0.36678052	      7.74407899	     -7.81013726	      1.71137458	     -7.15083651	      7.84958552	      0.49023914	    -57.64263994	     -1.00605386	      3.85145718	     18.09426237	      7.01408732	    -22.76163231	      6.31985962	     -4.99717406	    -11.86563613	    -11.20763645	     -1.60152339	     24.42162902	     89.95437384	      0.00000000	      0.00000000	      8.04353098	      6.95790473	     14.34902701	     43.82809353	     89.95437384	      0.00000000	      0.00000000
      0.41000000	     12.82534424	     -4.20969861	      5.40652852	     -0.45181549	      0.94264063	     -1.00224471	     -5.04605141	      8.22751953	    -10.99606741	    -20.27584534	     -0.35388026	      8.22277783	     -7.21749985	      1.57890623	     -5.55969448	      7.32846815	      0.84497906	    -57.48171283	     -1.00324515	      5.04340250	     18.02439784	      6.97466124	    -22.85478388	      5.76576844	     -4.63112652	    -11.33099387	    -11.36089826	     -1.24902082	     25.61384813	     89.95437384	      0.00000000	      0.00000000	      7.47562780	      6.87261622	     14.28870139	     41.81584572	     89.95437384	      0.00000000	      0.00000000
      0.42000000	     12.84030379	     -3.83936156	      5.12383735	     -0.43866080	      0.94356218	     -1.00133125	     -6.42936799	      7.88570309	    -11.10060908	    -19.54921342	     -0.34119814	      8.71534285	     -6.48727034	      1.42891459	     -4.01481947	      6.76143855	      1.17858854	    -57.09574987	     -0.99650882	      6.08592584	     18.03112924	      6.93957847	    -22.94517582	      5.21912983	     -4.25850241	    -10.78332437	    -11.58889374	     -0.81981136	     26.88161413	     89.95437384	      0.00000000	      0.00000000	      6.88203232	      6.80672209	     14.22399450	     39.74915742	     89.95437384	      0.00000000	      0.00000000
      0.43000000	     13.27754716	     -3.31242838	      4.63813014	     -0.42510008	      0.94489495	     -1.00043317	     -8.31533275	      7.26068187	    -11.46918334	    -18.82089390	     -0.32848657	      9.26474154	     -4.96881109	      1.05673704	     -3.24546091	      6.09199780	      1.88376602	    -56.14806518	     -0.97996861	      7.28416847	     17.88667968	      7.16799279	    -23.49367694	      4.47750248	     -3.77660525	    -10.32748681	    -11.94792461	     -0.23604583	     28.43864202	     89.95437384	      0.00000000	      0.00000000	      6.24190593	      6.73581316	     14.29650201	     37.75128827	     89.95437384	      0.00000000	      0.00000000
      0.44000000	     13.08759480	     -2.98800234	      4.34090663	     -0.41222311	      0.94485312	     -0.99947481	     -9.25690449	      6.92462697	    -11.42627469	    -18.44186700	     -0.32187130	      9.82722529	     -4.45350974	      0.85688414	     -1.46243560	      5.55354768	      2.07848426	    -55.46481415	     -0.96804363	      7.88136394	     17.74800190	      7.03499732	    -23.36776068	      3.93907413	     -3.45332436	     -9.67532393	    -12.13988259	     -0.06299192	     29.66089461	     89.95437384	      0.00000000	      0.00000000	      5.63817429	      6.71786518	     14.41837143	     35.64118056	     89.95437384	      0.00000000	      0.00000000
      0.45000000	     12.96454880	     -2.66759913	      3.98847350	     -0.39935625	      0.94457748	     -0.99842950	    -10.18094571	      6.57436594	    -11.23438420	    -18.22350324	     -0.31806013	     10.35508343	     -3.93682233	      0.63559039	      0.17872256	      5.09018378	      2.52436481	    -54.62701631	     -0.95342130	      8.51116647	     17.64475138	      6.89316820	    -23.31626071	      3.38480050	     -3.09810760	     -9.11410138	    -12.41245656	      0.17767741	     31.08879408	     89.95437384	      0.00000000	      0.00000000	      5.01420448	      6.70935953	     14.66257646	     33.50644358	     89.95437384	      0.00000000	      0.00000000
      0.46000000	     12.98454144	     -2.35570590	      3.47950005	     -0.38617948	      0.94428559	     -0.99756928	    -11.35193113	      6.21022630	    -10.94647676	    -17.86790626	     -0.31185379	     11.06835259	     -3.49859357	      0.39820793	      1.49830661	      4.58290473	      3.04039924	    -53.46124139	     -0.93307468	      9.15877243	     17.57477586	      6.77769714	    -23.38471970	      2.82917658	     -2.55930519	     -8.58840682	    -12.78547003	      0.40628245	     32.59975896	     89.95437384	      0.00000000	      0.00000000	      4.46424897	      6.60070858	     15.01836257	     31.23454118	     89.95437384	      0.00000000	      0.00000000
      0.47000000	     13.05605509	     -2.03238852	      2.89624766	     -0.37303327	      0.94384678	     -0.99659280	    -12.52731190	      5.79840242	    -10.59418213	    -17.58667314	     -0.30694535	     11.62682992	     -3.10543750	      0.15006267	      2.66157929	      4.10196842	      3.65813814	    -52.02402159	     -0.90799047	      9.81565556	     17.46947235	      6.65250663	    -23.51802405	      2.24163644	     -2.03431130	     -8.05932654	    -13.14802680	      0.63613075	     34.18963562	     89.95437384	      0.00000000	      0.00000000	      3.87634018	      6.54842852	     15.51274388	     28.99576595	     89.95437384	      0.00000000	      0.00000000
      0.48000000	     13.37368997	     -1.64898249	      2.23167177	     -0.35942638	      0.94354102	     -0.99560222	    -14.06351655	      5.29384458	    -10.42660724	    -17.16048113	     -0.29950690	     12.13209909	     -2.70867472	     -0.21823040	      3.38753138	      3.63181084	      4.50334892	    -50.29884348	     -0.87788043	     10.11963263	     17.35249042	      6.50686185	    -23.86202211	      1.56103401	     -1.49111156	     -7.53945310	    -13.46460298	      0.63358176	     35.77806828	     89.95437384	      0.00000000	      0.00000000	      3.25161548	      6.41062686	     16.67239789	     26.84114411	     89.95437384	      0.00000000	      0.00000000
